# AST/ASF file generated using VICON BodyLanguage
# -----------------------------------------------
:version 1.10
:name VICON
:units
  mass 1.0
  length 0.45
  angle deg
:documentation
   .ast/.asf automatically generated from VICON data using
   VICON BodyBuilder and BodyLanguage model FoxedUp or BRILLIANT.MOD
:root
   order TX TY TZ RX RY RZ
   axis XYZ
   position 0 0 0  
   orientation 0 0 0 
:bonedata
  begin
     id 1 
     name lhipjoint
     direction 0.702568 -0.596508 0.388042 
     length 2.56661 
     axis 0 0 0  XYZ
  end
  begin
     id 2 
     name lfemur
     direction 0.34202 -0.939693 0  
     length 6.58374  
     axis 0 0 20  XYZ
    dof rx ry rz
    limits (-160.0 20.0)
           (-70.0 70.0)
           (-60.0 70.0)
  end
  begin
     id 3 
     name ltibia
     direction 0.34202 -0.939693 0   
     length 6.62538   
     axis 0 0 20   XYZ
    dof rx
    limits (-10.0 170.0)
  end
  begin
     id 4 
     name lfoot
     direction 0.10455 -0.287249 0.952133   
     length 2.26699   
     axis -90 7.62852e-016 20   XYZ
    dof rx rz
    limits (-45.0 90.0)
           (-70.0 20.0)
  end
  begin
     id 5 
     name ltoes
     direction 1.53572e-011 -4.22322e-011 1   
     length 1.12949   
     axis -90 7.62852e-016 20   XYZ
    dof rx
    limits (-90.0 20.0)
  end
  begin
     id 6 
     name rhipjoint
     direction -0.728055 -0.574632 0.373811   
     length 2.66432  
     axis 0 0 0  XYZ 
  end
  begin
     id 7 
     name rfemur
     direction -0.34202 -0.939693 0   
     length 6.66732   
     axis 0 0 -20   XYZ
    dof rx ry rz
    limits (-160.0 20.0)
           (-70.0 70.0)
           (-70.0 60.0)
  end
  begin
     id 8 
     name rtibia
     direction -0.34202 -0.939693 0   
     length 6.59288   
     axis 0 0 -20   XYZ
    dof rx
    limits (-10.0 170.0)
 end
 begin
     id 9 
     name rfoot
     direction -0.119193 -0.327479 0.93731   
     length 2.38061  
     axis -90 -7.62852e-016 -20   XYZ
    dof rx rz
    limits (-45.0 90.0)
           (-20.0 70.0)
  end
  begin
     id 10 
     name rtoes
     direction -1.53547e-011 -4.21827e-011 1   
     length 1.17899   
     axis -90 -7.62852e-016 -20   XYZ
    dof rx
    limits (-90.0 20.0)
  end
  begin
     id 11 
     name lowerback
     direction -0.000416114 0.999912 -0.0132284   
     length 2.12109   
     axis 0 0 0   XYZ
    dof rx ry rz
    limits (-20.0 45.0)
           (-30.0 30.0)
           (-30.0 30.0)
  end
  begin
     id 12 
     name upperback
     direction -0.00136371 0.99809 0.0617608   
     length 2.10067   
     axis 0 0 0   XYZ
    dof rx ry rz
    limits (-20.0 45.0)
           (-30.0 30.0)
           (-30.0 30.0)
  end
  begin
     id 13 
     name thorax
     direction -3.43026e-005 0.997776 0.0666515   
     length 2.10618   
     axis 0 0 0   XYZ
    dof rx ry rz
    limits (-20.0 45.0)
           (-30.0 30.0)
           (-30.0 30.0)
  end
  begin
     id 14 
     name lowerneck
     direction 0.0398646 0.998418 0.0396592   
     length 1.83817   
     axis 0 0 0   XYZ
    dof rx ry rz
    limits (-20.0 45.0)
           (-30.0 30.0)
           (-30.0 30.0)
  end
  begin
     id 15 
     name upperneck
     direction -0.0367268 0.961527 -0.272244   
     length 1.81975   
     axis 0 0 0   XYZ
    dof rx ry rz
    limits (-20.0 45.0)
           (-30.0 30.0)
           (-30.0 30.0)
  end
  begin
     id 16
     name head
     direction -0.0182665 0.99536 -0.0944669  
     length 1.86026  
     axis 0 0 0   XYZ
    dof rx ry rz
    limits (-20.0 45.0)
           (-30.0 30.0)
           (-30.0 30.0)
  end
  begin
     id 17 
     name lclavicle
     direction 0.924239 0.361045 0.124212  
     length 3.26878  
     axis 0 0 0   XYZ
    dof ry rz
    limits (-20.0 10.0)
           (0.0 20.0)
  end
  begin
     id 18 
     name lhumerus
     direction 1 -4.48968e-011 -2.56583e-027   
     length 4.58538   
     axis 180 -30 -90   XYZ
    dof rx ry rz
    limits (-60.0 90.0)
           (-90.0 90.0)
           (-90.0 90.0)
  end
  begin
     id 19
     name lradius
     direction 1 -4.4898e-011 -5.50375e-027   
     length 2.68935   
     axis 180 -30 -90   XYZ
    dof rx
    limits (-10.0 170.0)
  end
  begin
     id 20
     name lwrist
     direction 1 -4.48939e-011 -1.48955e-026   
     length 1.34468   
     axis 9.0955e-015 90 90   XYZ
    dof ry
    limits (-180.0 0.0)
 end
  begin
     id 21 
     name lhand
     direction 1 -4.48936e-011 -2.97907e-026   
     length 0.585058   
     axis 1.90115e-014 90 90   XYZ
    dof rx rz
    limits (-90.0 90.0)
           (-45.0 45.0)
  end
  begin
     id 22 
     name lfingers
     direction 1 -4.49082e-011 -5.96235e-026   
     length 0.471689   
     axis 3.80223e-014 90 90   XYZ
    dof rx
    limits (0.0 90.0)
  end
  begin
     id 23
     name lthumb
     direction 0.707107 -6.3489e-011 0.707107   
     length 0.677253   
     axis -90 45 -3.84942e-014   XYZ
    dof rx rz
    limits (-45.0 45.0)
           (-45.0 45.0)
  end
  begin
     id 24 
     name rclavicle
     direction -0.923098 0.371783 0.0983239   
     length 3.19656  
     axis 0 0 0   XYZ 
    dof ry rz
    limits (-10.0 20.0)
           (-20.0 0.0)
  end
  begin
     id 25 
     name rhumerus
     direction -1 -4.48976e-011 -2.5492e-027  
     length 4.4745   
     axis 180 30 90   XYZ
    dof rx ry rz
    limits (-90.0 60.0)
           (-90.0 90.0)
           (-90.0 90.0)
  end
  begin
     id 26 
     name rradius
     direction -1 -4.48941e-011 -4.36555e-027   
     length 2.93896   
     axis 180 30 90   XYZ
    dof rx
    limits (-10.0 170.0)
  end
  begin
     id 27 
     name rwrist
     direction -1 -4.49044e-011 -1.49032e-026   
     length 1.46948   
     axis 9.0955e-015 -90 -90   XYZ
    dof ry
    limits (-180.0 0.0)
  end
  begin
     id 28
     name rhand
     direction -1 -4.48826e-011 -2.97749e-026   
     length 0.405092   
     axis 1.90115e-014 -90 -90   XYZ
    dof rx rz
    limits (-90.0 90.0)
           (-45.0 45.0)
  end
  begin
     id 29
     name rfingers
     direction -1 -4.49209e-011 -5.96602e-026   
     length 0.326596   
     axis 3.80223e-014 -90 -90   XYZ
    dof rx
    limits (0.0 90.0)
  end
  begin
     id 30
     name rthumb
     direction -0.707107 -6.34776e-011 0.707107   
     length 0.468928   
     axis -90 -45 3.84942e-014   XYZ
    dof rx rz
    limits (-45.0 45.0)
           (-45.0 45.0)
  end
:hierarchy
  begin
    root lhipjoint rhipjoint lowerback
    lhipjoint lfemur
    lfemur ltibia
    ltibia lfoot
    lfoot ltoes
    rhipjoint rfemur
    rfemur rtibia
    rtibia rfoot
    rfoot rtoes
    lowerback upperback
    upperback thorax
    thorax lowerneck lclavicle rclavicle
    lowerneck upperneck
    upperneck head
    lclavicle lhumerus
    lhumerus lradius
    lradius lwrist
    lwrist lhand lthumb
    lhand lfingers
    rclavicle rhumerus
    rhumerus rradius
    rradius rwrist
    rwrist rhand rthumb
    rhand rfingers
  end

#!OML:ASF H:\Punching\Project 1\Capture day 1\Session 1\female.ASF
:FULLY-SPECIFIED
:DEGREES
563
root -1.33028 15.6816 7.48556 14.5852 -0.268152 1.32817
lowerback -5.38122 -0.637811 0.457011
upperback -7.35045 -0.829129 1.08601
thorax -4.58113 -0.408249 0.857864
lowerneck -5.12854 7.88443 15.9582
upperneck 18.1679 11.0875 -11.2938
head 7.96993 5.545 -5.35183
rclavicle -6.63444e-015 -3.18055e-015
rhumerus -51.0488 -17.9058 -60.1052
rradius 25.548
rwrist 12.9929
rhand -16.128 -6.16416
rfingers 7.12502
rthumb 10.0767 -35.9029
lclavicle -6.63444e-015 -3.18055e-015
lhumerus -54.9313 10.8815 69.5083
lradius 27.2443
lwrist -15.1344
lhand -4.77032 19.4647
lfingers 7.12502
lthumb 21.0141 48.3462
rfemur -18.7467 5.33163 16.1851
rtibia 30.5835
rfoot -22.7164 -24.0804
rtoes 2.80167
lfemur -8.66351 -18.242 -16.1805
ltibia 13.9137
lfoot -18.9053 27.1845
ltoes 0.644217
564
root -1.3223 15.6805 7.48493 14.578 -0.550323 1.30943
lowerback -5.44784 -0.574168 0.409714
upperback -7.38392 -0.744026 1.08155
thorax -4.57957 -0.363565 0.880384
lowerneck -5.2044 7.88246 15.9136
upperneck 18.3393 11.0724 -11.1924
head 8.02992 5.5409 -5.31048
rclavicle -1.28713e-014 1.98785e-015
rhumerus -50.6484 -18.528 -59.8792
rradius 25.4318
rwrist 12.4394
rhand -16.0237 -6.52257
rfingers 7.12502
rthumb 10.1773 -36.2564
lclavicle -1.28713e-014 1.98785e-015
lhumerus -54.4273 10.0307 70.7012
lradius 27.9358
lwrist -14.402
lhand -4.53219 19.7117
lfingers 7.12502
lthumb 21.2428 48.5677
rfemur -18.8906 5.2961 16.1351
rtibia 30.7198
rfoot -22.6855 -23.8571
rtoes 2.77584
lfemur -8.51692 -18.2142 -16.2632
ltibia 13.7908
lfoot -18.9784 27.3929
ltoes 0.750704
565
root -1.31547 15.6787 7.4844 14.5574 -0.833429 1.2695
lowerback -5.49767 -0.518154 0.393596
upperback -7.4132 -0.669565 1.08075
thorax -4.58335 -0.325668 0.889366
lowerneck -5.27796 7.8889 15.875
upperneck 18.5204 11.0729 -11.1084
head 8.09651 5.54346 -5.27437
rclavicle -1.00883e-014 1.59028e-015
rhumerus -50.1516 -19.1426 -59.7124
rradius 25.3074
rwrist 11.7581
rhand -15.858 -6.92401
rfingers 7.12502
rthumb 10.3371 -36.6499
lclavicle -1.00883e-014 1.59028e-015
lhumerus -53.8822 9.09675 71.979
lradius 28.7134
lwrist -13.436
lhand -4.33595 20.0331
lfingers 7.12502
lthumb 21.4313 48.8677
rfemur -19.0071 5.25921 16.1143
rtibia 30.8336
rfoot -22.6496 -23.6195
rtoes 2.76218
lfemur -8.38062 -18.1505 -16.3238
ltibia 13.7223
lfoot -19.0801 27.5701
ltoes 0.844725
566
root -1.30993 15.676 7.4838 14.5203 -1.11914 1.21635
lowerback -5.52848 -0.47252 0.397269
upperback -7.43566 -0.609225 1.08379
thorax -4.59064 -0.295749 0.891254
lowerneck -5.34856 7.90593 15.8421
upperneck 18.708 11.0923 -11.0434
head 8.16911 5.55408 -5.2436
rclavicle 3.50358e-015 -3.97569e-015
rhumerus -49.5404 -19.7144 -59.6433
rradius 25.2012
rwrist 10.8988
rhand -15.6325 -7.40819
rfingers 7.12502
rthumb 10.5547 -37.1232
lclavicle 3.50358e-015 -3.97569e-015
lhumerus -53.3005 8.06775 73.3525
lradius 29.5782
lwrist -12.1897
lhand -4.27387 20.4236
lfingers 7.12502
lthumb 21.4909 49.2514
rfemur -19.0947 5.23358 16.1121
rtibia 30.9308
rfoot -22.6243 -23.372
rtoes 2.76872
lfemur -8.24696 -18.047 -16.3722
ltibia 13.6988
lfoot -19.2053 27.7125
ltoes 0.935464
567
root -1.30581 15.6726 7.4832 14.463 -1.41455 1.15772
lowerback -5.53732 -0.435971 0.410425
upperback -7.45084 -0.561143 1.08748
thorax -4.60247 -0.272457 0.88848
lowerneck -5.40568 7.93273 15.8201
upperneck 18.8931 11.1298 -10.998
head 8.24309 5.57296 -5.21955
rclavicle 1.16538e-014 4.37326e-015
rhumerus -48.8069 -20.2038 -59.7174
rradius 25.1466
rwrist 9.78933
rhand -15.3762 -7.96862
rfingers 7.12502
rthumb 10.8019 -37.6709
lclavicle 1.16538e-014 4.37326e-015
lhumerus -52.6903 6.93268 74.8178
lradius 30.5288
lwrist -10.6662
lhand -4.40313 20.8642
lfingers 7.12502
lthumb 21.3668 49.7061
rfemur -19.157 5.22205 16.1207
rtibia 31.0217
rfoot -22.5995 -23.1221
rtoes 2.76431
lfemur -8.10098 -17.8996 -16.4196
ltibia 13.7008
lfoot -19.3389 27.8235
ltoes 1.01135
568
root -1.3031 15.6687 7.48252 14.3869 -1.72402 1.10319
lowerback -5.52302 -0.410281 0.421575
upperback -7.46041 -0.52744 1.09083
thorax -4.62113 -0.256311 0.886439
lowerneck -5.44035 7.96991 15.8109
upperneck 19.0678 11.1876 -10.9762
head 8.31479 5.6012 -5.20388
rclavicle 2.11209e-015 8.74653e-015
rhumerus -47.9409 -20.5687 -59.9745
rradius 25.1503
rwrist 8.37037
rhand -15.2107 -8.5293
rfingers 7.12502
rthumb 10.9615 -38.2231
lclavicle 2.11209e-015 8.74653e-015
lhumerus -52.0529 5.70353 76.3534
lradius 31.5508
lwrist -8.90958
lhand -4.73435 21.3307
lfingers 7.12502
lthumb 21.0486 50.2084
rfemur -19.2022 5.22783 16.1278
rtibia 31.1173
rfoot -22.5882 -22.8658
rtoes 2.73159
lfemur -7.93369 -17.7057 -16.4769
ltibia 13.7067
lfoot -19.4653 27.9046
ltoes 1.0594
569
root -1.30175 15.6642 7.48195 14.2895 -2.05307 1.06347
lowerback -5.48947 -0.396726 0.418286
upperback -7.46174 -0.509657 1.09285
thorax -4.64156 -0.247495 0.890966
lowerneck -5.4457 8.01821 15.8133
upperneck 19.2247 11.2677 -10.9787
head 8.38078 5.63967 -5.19651
rclavicle -9.19379e-015 1.74931e-014
rhumerus -46.9383 -20.7782 -60.4371
rradius 25.2408
rwrist 6.68366
rhand -15.1434 -9.16142
rfingers 7.12502
rthumb 11.0264 -38.8518
lclavicle -9.19379e-015 1.74931e-014
lhumerus -51.396 4.40273 77.9288
lradius 32.6404
lwrist -7.01
lhand -5.23824 21.7916
lfingers 7.12502
lthumb 20.5645 50.7224
rfemur -19.2351 5.24421 16.1219
rtibia 31.2281
rfoot -22.5871 -22.6032
rtoes 2.65167
lfemur -7.73178 -17.4665 -16.5577
ltibia 13.6964
lfoot -19.5763 27.9609
ltoes 1.08713
570
root -1.30179 15.6596 7.48149 14.1744 -2.40715 1.04166
lowerback -5.43713 -0.391932 0.3972
upperback -7.45922 -0.503309 1.09005
thorax -4.66818 -0.243679 0.900408
lowerneck -5.41091 8.07312 15.8356
upperneck 19.358 11.3646 -11.0089
head 8.437 5.68645 -5.2011
rclavicle -1.00883e-014 5.1684e-015
rhumerus -45.8188 -20.7921 -61.1271
rradius 25.4501
rwrist 4.75975
rhand -15.2364 -9.85759
rfingers 7.12502
rthumb 10.9368 -39.5527
lclavicle -1.00883e-014 5.1684e-015
lhumerus -50.7198 3.05267 79.5025
lradius 33.7975
lwrist -5.05823
lhand -5.81138 22.2686
lfingers 7.12502
lthumb 20.0137 51.2579
rfemur -19.2641 5.27313 16.0991
rtibia 31.3585
rfoot -22.5944 -22.3352
rtoes 2.5218
lfemur -7.49661 -17.1815 -16.6642
ltibia 13.6641
lfoot -19.6675 27.996
ltoes 1.09288
571
root -1.30308 15.6545 7.4813 14.0434 -2.78703 1.03851
lowerback -5.3707 -0.394566 0.361405
upperback -7.453 -0.506827 1.08046
thorax -4.69859 -0.244285 0.911016
lowerneck -5.33758 8.13322 15.8734
upperneck 19.4691 11.475 -11.0588
head 8.48307 5.74032 -5.21447
rclavicle -2.08724e-015 6.75868e-015
rhumerus -44.598 -20.5854 -62.0471
rradius 25.8093
rwrist 2.68552
rhand -15.4719 -10.6781
rfingers 7.12502
rthumb 10.7096 -40.3851
lclavicle -2.08724e-015 6.75868e-015
lhumerus -50.022 1.68525 81.0313
lradius 35.0017
lwrist -3.17606
lhand -6.38053 22.7122
lfingers 7.12502
lthumb 19.4665 51.7577
rfemur -19.2901 5.3079 16.0589
rtibia 31.5092
rfoot -22.6144 -22.0575
rtoes 2.33391
lfemur -7.23215 -16.8388 -16.7967
ltibia 13.6117
lfoot -19.732 28.0014
ltoes 1.06066
572
root -1.30559 15.649 7.48151 13.8987 -3.1933 1.04633
lowerback -5.29437 -0.401181 0.320481
upperback -7.44331 -0.515872 1.06391
thorax -4.73082 -0.247625 0.917288
lowerneck -5.22792 8.19599 15.9261
upperneck 19.5597 11.5944 -11.1236
head 8.51898 5.79936 -5.23546
rclavicle 6.48535e-015 2.18663e-014
rhumerus -43.303 -20.1391 -63.1883
rradius 26.358
rwrist 0.54655
rhand -15.8169 -11.6811
rfingers 7.12502
rthumb 10.3768 -41.405
lclavicle 6.48535e-015 2.18663e-014
lhumerus -49.299 0.324371 82.4825
lradius 36.2353
lwrist -1.46439
lhand -6.87903 23.1052
lfingers 7.12502
lthumb 18.9872 52.1985
rfemur -19.3114 5.35053 16.0089
rtibia 31.6749
rfoot -22.654 -21.7696
rtoes 2.10398
lfemur -6.94853 -16.4313 -16.9449
ltibia 13.5548
lfoot -19.7788 27.9708
ltoes 0.993801
573
root -1.30921 15.6428 7.48231 13.744 -3.62109 1.05924
lowerback -5.20958 -0.409831 0.284165
upperback -7.43228 -0.528055 1.03962
thorax -4.76648 -0.253007 0.913021
lowerneck -5.0894 8.26058 15.9918
upperneck 19.6364 11.7195 -11.1955
head 8.5473 5.86241 -5.26123
rclavicle -7.23079e-015 2.06736e-014
rhumerus -41.9667 -19.4589 -64.5149
rradius 27.1048
rwrist -1.5932
rhand -16.2445 -12.8506
rfingers 7.12502
rthumb 9.9643 -42.5948
lclavicle -7.23079e-015 2.06736e-014
lhumerus -48.5479 -1.01932 83.8396
lradius 37.4869
lwrist 0.0149101
lhand -7.26753 23.4449
lfingers 7.12502
lthumb 18.6135 52.5743
rfemur -19.3251 5.39504 15.9566
rtibia 31.849
rfoot -22.7167 -21.4694
rtoes 1.81737
lfemur -6.66155 -15.9423 -17.0996
ltibia 13.5149
lfoot -19.8088 27.8879
ltoes 0.876062
574
root -1.31394 15.6362 7.48384 13.5836 -4.06722 1.06818
lowerback -5.1241 -0.418579 0.26419
upperback -7.41906 -0.541056 1.00761
thorax -4.8004 -0.259876 0.891617
lowerneck -4.9316 8.32706 16.0687
upperneck 19.7071 11.848 -11.2655
head 8.57154 5.92865 -5.2884
rclavicle -1.34925e-014 7.95139e-015
rhumerus -40.6166 -18.5738 -65.9814
rradius 28.0472
rwrist -3.6682
rhand -16.7342 -14.1408
rfingers 7.12502
rthumb 9.49179 -43.907
lclavicle -1.34925e-014 7.95139e-015
lhumerus -47.7579 -2.33487 85.089
lradius 38.7322
lwrist 1.23647
lhand -7.53377 23.7167
lfingers 7.12502
lthumb 18.3574 52.8705
rfemur -19.33 5.44282 15.9111
rtibia 32.0236
rfoot -22.8032 -21.1553
rtoes 1.51191
lfemur -6.38792 -15.3709 -17.2481
ltibia 13.5171
lfoot -19.8341 27.7519
ltoes 0.699536
